<svg xmlns="http://www.w3.org/2000/svg" viewBox="0 0 100 100" fill="none" role="img" aria-label="Operations Director">
  <path d="M52 20 H20 V84 H72 V32" stroke="currentColor" stroke-width="7" stroke-linecap="butt" stroke-linejoin="miter"/>
  <path d="M62 32 L72 20 L82 32 Z" fill="currentColor"/>
  <path d="M 46.00 40.40 L 47.45 40.49 L 49.62 36.93 L 54.10 38.78 L 53.11 42.83 L 54.20 43.80 L 55.17 44.89 L 59.22 43.90 L 61.07 48.38 L 57.51 50.55 L 57.60 52.00 L 57.51 53.45 L 61.07 55.62 L 59.22 60.10 L 55.17 59.11 L 54.20 60.20 L 53.11 61.17 L 54.10 65.22 L 49.62 67.07 L 47.45 63.51 L 46.00 63.60 L 44.55 63.51 L 42.38 67.07 L 37.90 65.22 L 38.89 61.17 L 37.80 60.20 L 36.83 59.11 L 32.78 60.10 L 30.93 55.62 L 34.49 53.45 L 34.40 52.00 L 34.49 50.55 L 30.93 48.38 L 32.78 43.90 L 36.83 44.89 L 37.80 43.80 L 38.89 42.83 L 37.90 38.78 L 42.38 36.93 L 44.55 40.49 Z M 52.60 52.00 A 6.6 6.6 0 1 0 39.40 52.00 A 6.6 6.6 0 1 0 52.60 52.00 Z" fill="currentColor" fill-rule="evenodd"/>
</svg>
