<svg xmlns="http://www.w3.org/2000/svg" viewBox="0 0 100 100" fill="none" role="img" aria-label="Operations Director">
  <path d="M47 20 H25 A9 9 0 0 0 16 29 V75 A9 9 0 0 0 25 84 H63 A9 9 0 0 0 72 75 V23" stroke="currentColor" stroke-width="7" stroke-linecap="round" stroke-linejoin="round"/>
  <path d="M60 25 L72 9 L84 25 Z" fill="currentColor"/>
  <path d="M 44.00 39.70 L 45.54 39.80 L 47.85 35.96 L 52.62 37.93 L 51.54 42.28 L 52.70 43.30 L 53.72 44.46 L 58.07 43.38 L 60.04 48.15 L 56.20 50.46 L 56.30 52.00 L 56.20 53.54 L 60.04 55.85 L 58.07 60.62 L 53.72 59.54 L 52.70 60.70 L 51.54 61.72 L 52.62 66.07 L 47.85 68.04 L 45.54 64.20 L 44.00 64.30 L 42.46 64.20 L 40.15 68.04 L 35.38 66.07 L 36.46 61.72 L 35.30 60.70 L 34.28 59.54 L 29.93 60.62 L 27.96 55.85 L 31.80 53.54 L 31.70 52.00 L 31.80 50.46 L 27.96 48.15 L 29.93 43.38 L 34.28 44.46 L 35.30 43.30 L 36.46 42.28 L 35.38 37.93 L 40.15 35.96 L 42.46 39.80 Z M 51.00 52.00 A 7 7 0 1 0 37.00 52.00 A 7 7 0 1 0 51.00 52.00 Z" fill="currentColor" fill-rule="evenodd"/>
</svg>
